<svg version="1.1" xmlns="http://www.w3.org/2000/svg" xmlns:xlink="http://www.w3.org/1999/xlink" role="img" width="143" height="90" viewbox="0 0 143 90"><title>ZDet</title><desc>Generated by logo.svg, https://github.com/bubkoo/logo.svg</desc><path fill="#2b68a7" d="M-0.09 70.35L0.42 67.79L32.62 27.86L17.70 27.86Q14.82 27.86 13.42 29.42Q12.01 30.99 11.30 33.10L10.41 35.86L7.08 35.86L9.77 24.66L41.38 24.66L40.87 27.28L8.62 67.15L25.70 67.15Q28.65 67.15 30.06 65.58Q31.46 64.02 32.17 61.90L33.06 59.15L36.39 59.15L33.70 70.35L-0.09 70.35ZM38.38 70.35L38.89 67.66L39.72 67.66Q41.90 67.66 43.62 66.86Q45.35 66.06 45.99 63.06L52.65 31.70Q52.78 31.25 52.84 30.77Q52.90 30.29 52.90 29.90Q52.90 28.18 51.46 27.76Q50.02 27.34 48.30 27.34L47.46 27.34L48.04 24.66L65.96 24.66Q74.60 24.66 79.37 29.10Q84.14 33.55 84.14 42.06Q84.14 47.76 82.47 52.88Q80.81 58 77.54 61.94Q74.28 65.87 69.51 68.11Q64.74 70.35 58.54 70.35L38.38 70.35M51.56 67.09L57.13 67.09Q63.40 67.09 67.91 63.79Q72.42 60.50 74.79 54.70Q77.16 48.91 77.16 41.36Q77.16 34.38 73.86 31.12Q70.57 27.86 65 27.86L59.94 27.86L51.56 67.09ZM101.35 70.99Q97.90 70.99 95.08 69.52Q92.26 68.05 90.57 65.14Q88.87 62.22 88.87 57.74Q88.87 54.22 90.09 50.32Q91.30 46.42 93.74 43.02Q96.17 39.63 99.72 37.52Q103.27 35.41 107.94 35.41Q111.98 35.41 114.22 37.36Q116.46 39.31 116.46 42.77Q116.46 46.16 114.06 49.07Q111.66 51.98 107.46 53.78Q103.27 55.57 97.90 55.57L95.66 55.57Q95.59 56.27 95.56 56.94Q95.53 57.62 95.53 58.26Q95.53 62.42 97.32 64.69Q99.11 66.96 102.57 66.96Q105.64 66.96 108.04 65.49Q110.44 64.02 111.78 62.35Q112.42 62.80 112.42 63.95Q112.42 65.36 111.24 66.99Q110.06 68.62 107.62 69.81Q105.19 70.99 101.35 70.99M96.23 52.62L96.87 52.62Q100.58 52.62 103.53 51.38Q106.47 50.13 108.17 47.92Q109.86 45.71 109.86 42.77Q109.86 38.48 106.15 38.48Q104.30 38.48 102.73 39.73Q101.16 40.98 99.88 43.06Q98.60 45.14 97.67 47.63Q96.74 50.13 96.23 52.62ZM129.38 70.99Q122.41 70.99 122.41 63.50Q122.41 62.35 122.60 60.85Q122.79 59.34 123.05 58.13L126.95 39.70L122.09 39.70L122.66 37.14Q125.42 37.14 127.98 35.12Q130.54 33.10 132.46 28.18L135.40 28.18L133.74 36.05L141.48 36.05L140.71 39.70L132.97 39.70L129.06 57.94Q128.74 59.54 128.52 60.98Q128.30 62.42 128.30 63.44Q128.30 65.30 129.19 66.13Q130.09 66.96 131.69 66.96Q133.03 66.96 134.44 66.54Q135.85 66.13 136.94 65.55L138.02 67.92Q136.10 69.26 133.93 70.13Q131.75 70.99 129.38 70.99Z"></path></svg>